<svg data-v-1084b650="" xmlns="http://www.w3.org/2000/svg" viewBox="0 0 300 300"><!----> <!----> <rect data-v-1084b650="" fill="#ffffff" x="0" y="0" width="300px" height="300px" class="logo-background-square"></rect> <!----> <g data-v-1084b650="" id="bc734202-23af-4b3e-85f6-5ef50cf33659" fill="#000000" transform="matrix(5.499999999999998,0,0,5.499999999999998,33.75750607252125,159.73774528503418)"><path d="M1.99 4.58L0.35 14.35L3.53 14.35C6.57 14.35 8.23 12.03 8.23 8.18C8.23 5.87 7.04 4.58 4.86 4.58ZM3.57 12.71L2.69 12.71L3.77 6.22L4.68 6.22C5.67 6.22 6.15 6.72 6.15 7.78C6.15 8.05 6.12 8.40 6.06 8.74L5.77 10.50C5.52 12.01 4.82 12.71 3.57 12.71ZM8.93 14.35L15.18 14.35L15.46 12.64L11.27 12.64L11.66 10.26L15.68 10.26L15.96 8.55L11.96 8.55L12.33 6.29L16.53 6.29L16.81 4.58L10.57 4.58ZM22.78 6.29L25.61 6.29L25.89 4.58L18.16 4.58L17.88 6.29L20.71 6.29L19.36 14.35L21.43 14.35ZM25.73 14.35L31.98 14.35L32.26 12.64L28.07 12.64L28.46 10.26L32.48 10.26L32.76 8.55L28.76 8.55L29.13 6.29L33.33 6.29L33.61 4.58L27.37 4.58ZM36.13 14.35L36.75 10.71L37.65 10.71L38.72 14.35L40.91 14.35L39.58 10.50C41.03 10.09 41.92 8.90 41.92 7.18C41.92 5.63 40.99 4.58 39.26 4.58L35.73 4.58L34.09 14.35ZM38.14 9.09L37.02 9.09L37.49 6.24L38.65 6.24C39.34 6.24 39.76 6.52 39.76 7.17C39.76 7.31 39.75 7.46 39.72 7.63L39.66 7.97C39.54 8.78 39.14 9.09 38.14 9.09Z"></path></g> <linearGradient data-v-1084b650="" gradientTransform="rotate(25)" id="ddc5cf0f-0755-7570-a743-adf0f31a440c" x1="0%" y1="0%" x2="100%" y2="0%"><stop data-v-1084b650="" offset="0%" style="stop-color: rgb(222, 56, 55); stop-opacity: 1;"></stop> <stop data-v-1084b650="" offset="100%" style="stop-color: rgb(210, 212, 214); stop-opacity: 1;"></stop></linearGradient> <g data-v-1084b650="" id="da1c68f2-3af2-e9d5-0958-9cd97510748a" fill="url(#ddc5cf0f-0755-7570-a743-adf0f31a440c)" stroke="none" transform="matrix(0.5475565542086996,0,0,0.5475565542086996,67.86668940823715,32.93807995003762)"><svg xmlns="http://www.w3.org/2000/svg" viewBox="0 0 96 96"><path d="M30.924 75.171a31.232 31.232 0 0 0 15.738 4.232c12.449 0 23.205-7.244 28.285-17.748-5.836 3.205-12.42 6.047-19.428 8.336-8.446 2.76-16.821 4.514-24.595 5.18zM22.602 65.581c9.02 0 19.314-1.807 29.769-5.223 10.506-3.434 19.174-7.793 25.693-12.309V48c0-17.346-14.059-31.404-31.402-31.404C29.318 16.596 15.26 30.655 15.26 48a31.272 31.272 0 0 0 5.355 17.547c.651.02 1.311.034 1.987.034z"></path><path d="M95.563 32.462a8.55 8.55 0 0 0-.365-.91 8.392 8.392 0 0 0-.242-.945c-2.271-6.955-13.012-10.199-27.32-9.371a34.069 34.069 0 0 1 4.746 4.523c10.164-.15 18.148 1.928 22 6.064-1.238 10.408-18.164 23.502-41.195 31.029-23.029 7.525-44.421 6.951-51.568-.719.579-4.868 4.587-10.323 11.051-15.523.09-2.227.398-4.396.896-6.492C3.682 47.317-1.611 55.22.436 61.491c.104.313.229.613.367.908.063.32.141.637.24.949 3.537 10.82 27.561 12.676 53.662 4.148 26.102-8.528 44.393-24.214 40.858-35.034z"></path></svg></g></svg>